<svg width="415" height="71" viewBox="0 0 415 71" fill="none" xmlns="http://www.w3.org/2000/svg">
<path d="M402.649 71C349.855 71 318.572 46.6618 318.238 46.3815C255.685 -2.76224 217.338 6.60991 164.278 19.6001C150.205 23.0445 135.638 26.6092 119.029 29.5997C37.8493 44.232 -2.09944 1.67016 -2.5 1.22959L-1.51196 0.335083C-1.12476 0.762303 38.3967 42.7768 118.775 28.2913C135.358 25.3008 149.885 21.7495 163.944 18.3051C217.378 5.2348 255.978 -4.2041 319.053 45.3401C319.44 45.6472 357.399 75.152 420.353 68.7571L420.487 70.0788C414.305 70.7197 408.35 71 402.649 71Z" fill="#F9F0E3"/>
</svg>
